<svg id="© 2019 Radim Strýček, info@grastix.com" xmlns="http://www.w3.org/2000/svg" viewBox="0 0 181.3625 160.3169">
  <g id="logoMark">
    <path id="logoMark_PathItem_" data-name="logoMark &lt;PathItem&gt;" d="M123.38,70.4229a9.52,9.52,0,0,0-5.62-1.67,8.82,8.82,0,0,0-5.32,1.57,8.43,8.43,0,0,0-3.06,4.34,24.2994,24.2994,0,0,0-1.08,8.08,26.38,26.38,0,0,0,1,8.09,8.76,8.76,0,0,0,3.1,4.63,8.64,8.64,0,0,0,5.37,1.68,9.1792,9.1792,0,0,0,5.38-1.63,8.35,8.35,0,0,0,3.1-4.22,40.1641,40.1641,0,0,1-.87-8.64,39.0631,39.0631,0,0,1,.87-8.53A7.58,7.58,0,0,0,123.38,70.4229Z" style="fill: #fff"/>
    <path id="logoMark_CompoundPathItem_" data-name="logoMark &lt;CompoundPathItem&gt;" d="M107,1.4829a71.4539,71.4539,0,0,1,13,6.78c4.09,2.6,8.76,5.75,7.19,9.57-5.17,9.05-17.77,4.88-24.93,1.57-8.03-3.71-17.07-9.4-26.26-7.86s-14.47,12.59-17.27,20.65c10.12-2.89,25.1-4.73,31,6.35,4.43,8.26,4,24.1-5.93,28.25-11,4.58-19.07-5.42-27.18-10.11-7.07-4.08-21.46-12.22-27.13-1.83-4.39,8.15.56,17.15-3.61,25.2-5.2,9.95-17.02,7.66-25.88,6.39a71.54,71.54,0,0,0,6.37,6.07c4.25,3.29,9.58,5.94,15.09,5,4.73-.94,7.94-3.32,11.37-6.57s5-7.64,10-9.12a16.5206,16.5206,0,0,1,11.79,1.27c7.78,3.85,14.73,12.32,14.11,21.36-.33,4.72-3.88,8.43-7.54,11.08-2.12,1.53-6.29,3-11.68,3.64,7,9.65,17.41,9.34,29.65,8.31,9.73-.83,20.46-6.83,30.32-4.48,11,2.61,7.46,13.87.8,19.26-7.77,6.31-18.24,7.33-27.95,6.53a120.2312,120.2312,0,0,0,21.67,8.65C208,186.8329,205.3-19.3571,107,1.4829Zm33.33,89.35a8.83,8.83,0,0,0,3.11,4.63,8.64,8.64,0,0,0,5.37,1.68,9.12,9.12,0,0,0,5.37-1.63,8.3093,8.3093,0,0,0,3.23-4.51,1.4284,1.4284,0,0,0,.1-.59.4.4,0,0,0,.09-.29c.07-.79.53-1.12,1.39-1l11.33,1.78a1,1,0,0,1,1.0032.9968c0,.0278-.001.0556-.0032.0832a13.7056,13.7056,0,0,1-.6,3,18.37,18.37,0,0,1-8,10.35,25.2886,25.2886,0,0,1-13.75,3.74,23.56,23.56,0,0,1-13.65-3.94q-.87-.6-1.65-1.26a21.6853,21.6853,0,0,1-2,1.46,25.2591,25.2591,0,0,1-13.75,3.74,23.56,23.56,0,0,1-13.65-3.94A21.47,21.47,0,0,1,96,94.2829a36.13,36.13,0,0,1-1.7-11.63,34.8817,34.8817,0,0,1,1.7-11.44,20.48,20.48,0,0,1,8.18-10.55,26.34,26.34,0,0,1,27.55.1,20.4046,20.4046,0,0,1,1.69,1.24,22.5013,22.5013,0,0,1,1.81-1.36,26.34,26.34,0,0,1,27.55.1,18.91,18.91,0,0,1,7.93,10,12.3987,12.3987,0,0,1,.79,3.55v.19a1,1,0,0,1-.9059,1.086c-.0313.0028-.0627.0042-.0941.004l-11.34,1.67H159a1.18,1.18,0,0,1-1.19-1l-.29-1.58a7.5,7.5,0,0,0-3.06-4.24,9.52,9.52,0,0,0-5.62-1.67,8.8006,8.8006,0,0,0-5.32,1.57,8.3707,8.3707,0,0,0-3.06,4.34,24.302,24.302,0,0,0-1.08,8.08,26.74,26.74,0,0,0,.97,8.09Z" style="fill: #fff"/>
  </g>
</svg>
